<svg width="1280" height="720" xmlns="http://www.w3.org/2000/svg" xmlns:xlink="http://www.w3.org/1999/xlink" overflow="hidden"><defs><clipPath id="clip0"><rect x="0" y="0" width="1280" height="720"/></clipPath></defs><g clip-path="url(#clip0)"><rect x="0" y="0" width="1280" height="720" fill="#FFFFFF"/><text fill="#0070C0" font-family="DengXian,DengXian_MSFontService,sans-serif" font-weight="700" font-size="37" transform="translate(97.6 78)">App Algorithm</text><rect x="721.5" y="301.5" width="433" height="51" stroke="#2F528F" stroke-width="1.33333" stroke-miterlimit="8" fill="#4472C4"/><text fill="#FFFFFF" font-family="DengXian,DengXian_MSFontService,sans-serif" font-weight="400" font-size="24" transform="translate(804.841 334)">Orientation Measurement</text><rect x="610.5" y="21.5001" width="309" height="119" stroke="#2F528F" stroke-width="1.33333" stroke-miterlimit="8" fill="#FFE699"/><rect x="623.5" y="35.5001" width="113" height="40" stroke="#2F528F" stroke-width="1.33333" stroke-miterlimit="8" fill="#4472C4"/><text fill="#FFFFFF" font-family="DengXian,DengXian_MSFontService,sans-serif" font-weight="400" font-size="24" transform="translate(636.218 63)">Magnet</text><rect x="624.5" y="90.5001" width="113" height="40" stroke="#2F528F" stroke-width="1.33333" stroke-miterlimit="8" fill="#4472C4"/><text fill="#FFFFFF" font-family="DengXian,DengXian_MSFontService,sans-serif" font-weight="400" font-size="24" transform="translate(644.782 117)">Gravity</text><rect x="748.5" y="36.5001" width="157" height="94" stroke="#2F528F" stroke-width="1.33333" stroke-miterlimit="8" fill="#70AD47"/><text fill="#FFFFFF" font-family="DengXian,DengXian_MSFontService,sans-serif" font-weight="400" font-size="24" transform="translate(796.414 76)">Direct <tspan font-size="24" x="-28" y="29">Orientation</tspan></text><rect x="945.5" y="15.5001" width="309" height="119" stroke="#2F528F" stroke-width="1.33333" stroke-miterlimit="8" fill="#FFE699"/><rect x="958.5" y="29.5001" width="113" height="40" stroke="#2F528F" stroke-width="1.33333" stroke-miterlimit="8" fill="#4472C4"/><text fill="#FFFFFF" font-family="DengXian,DengXian_MSFontService,sans-serif" font-weight="400" font-size="24" transform="translate(989.733 57)">Gyro</text><rect x="960.5" y="84.5001" width="112" height="40" stroke="#2F528F" stroke-width="1.33333" stroke-miterlimit="8" fill="#4472C4"/><text fill="#FFFFFF" font-family="DengXian,DengXian_MSFontService,sans-serif" font-weight="400" font-size="24" transform="translate(980.464 111)">Init Ori</text><rect x="1083.5" y="29.5001" width="155" height="93" stroke="#2F528F" stroke-width="1.33333" stroke-miterlimit="8" fill="#70AD47"/><text fill="#FFFFFF" font-family="DengXian,DengXian_MSFontService,sans-serif" font-weight="400" font-size="24" transform="translate(1093.16 69)">Accumulated <tspan font-size="24" x="23.6666" y="29">Rotation</tspan></text><rect x="611.5" y="140.5" width="308" height="31" stroke="#2F528F" stroke-width="1.33333" stroke-miterlimit="8" fill="#4472C4"/><text fill="#FFFFFF" font-family="DengXian,DengXian_MSFontService,sans-serif" font-weight="400" font-size="24" transform="translate(652.546 163)">High  frequency noise</text><rect x="946.5" y="136.5" width="306" height="38" stroke="#2F528F" stroke-width="1.33333" stroke-miterlimit="8" fill="#4472C4"/><text fill="#FFFFFF" font-family="DengXian,DengXian_MSFontService,sans-serif" font-weight="400" font-size="24" transform="translate(1000.03 163)">Low frequency drift</text><rect x="722.5" y="214.5" width="424" height="47" stroke="#2F528F" stroke-width="1.33333" stroke-miterlimit="8" fill="#7030A0"/><text fill="#FFFFFF" font-family="DengXian,DengXian_MSFontService,sans-serif" font-weight="400" font-size="24" transform="translate(822.114 245)">Complementary  filter</text><path d="M765.833 171.5 765.833 207.664 765.167 207.664 765.167 171.5ZM769.5 206.331 765.5 214.331 761.5 206.331Z" fill="#4472C4"/><path d="M1099.83 174.5 1099.83 209.495 1099.17 209.495 1099.17 174.5ZM1103.5 208.161 1099.5 216.161 1095.5 208.161Z" fill="#4472C4"/><path d="M941.833 260.5 941.833 295.495 941.167 295.495 941.167 260.5ZM945.5 294.161 941.5 302.161 937.5 294.161Z" fill="#4472C4"/><path d="M0.117886-0.311792 114.651 42.9922 114.415 43.6158-0.117886 0.311792ZM114.701 39.0911 120.769 45.6618 111.871 46.5741Z" fill="#4472C4" transform="matrix(-1 0 0 1 938.269 352.5)"/><rect x="699" y="398" width="235" height="62" fill="#F8CBAD"/><text font-family="DengXian,DengXian_MSFontService,sans-serif" font-weight="400" font-size="24" transform="translate(713.405 436)">Torso Measurement</text><rect x="699" y="462" width="235" height="62" fill="#FFF2CC"/><text font-family="DengXian,DengXian_MSFontService,sans-serif" font-weight="400" font-size="24" transform="translate(720.992 501)">Init Azimuth Angle</text><rect x="994" y="399" width="235" height="62" fill="#F8CBAD"/><text font-family="DengXian,DengXian_MSFontService,sans-serif" font-weight="400" font-size="24" transform="translate(1021.79 437)">Ori Measurement</text><rect x="994" y="464" width="235" height="62" fill="#FFF2CC"/><text font-family="DengXian,DengXian_MSFontService,sans-serif" font-weight="400" font-size="24" transform="translate(1052.88 502)">Euler Angle</text><path d="M938.587 352.178 1106.52 397.339 1106.35 397.983 938.414 352.822ZM1106.18 393.452 1112.87 399.393 1104.11 401.178Z" fill="#4472C4"/><path d="M816.587 524.178 946.521 559.359 946.347 560.002 816.413 524.822ZM946.193 555.471 952.869 561.423 944.102 563.193Z" fill="#4472C4"/><rect x="835" y="561" width="235" height="62" fill="#F8CBAD"/><text font-family="DengXian,DengXian_MSFontService,sans-serif" font-weight="400" font-size="24" transform="translate(888.528 600)">Ori in model</text><rect x="835" y="626" width="235" height="62" fill="#FFF2CC"/><text font-family="DengXian,DengXian_MSFontService,sans-serif" font-weight="400" font-size="24" transform="translate(893.866 665)">Euler Angle</text><path d="M0.0731105-0.325217 152.338 33.9047 152.192 34.5552-0.0731105 0.325217ZM151.841 30.0349 158.769 35.6922 150.087 37.8401Z" fill="#4472C4" transform="matrix(-1 0 0 1 1112.27 526.5)"/><path d="M831.577 628.833 683.167 628.833 683.167 628.167 831.577 628.167ZM684.5 632.5 676.5 628.5 684.5 624.5Z" fill="#4472C4"/><rect x="439" y="568" width="235" height="62" fill="#F8CBAD"/><text font-family="DengXian,DengXian_MSFontService,sans-serif" font-weight="400" font-size="24" transform="translate(492.717 607)">quantization</text><rect x="439" y="633" width="235" height="62" fill="#FFF2CC"/><text font-family="DengXian,DengXian_MSFontService,sans-serif" font-weight="400" font-size="24" transform="translate(528.637 672)">Index</text><rect x="428.5" y="443.5" width="249" height="50" stroke="#2F528F" stroke-width="1.33333" stroke-miterlimit="8" fill="#4472C4"/><text fill="#FFFFFF" font-family="DengXian,DengXian_MSFontService,sans-serif" font-weight="400" font-size="24" transform="translate(472.905 476)">Data Streaming</text><path d="M557.229 568.472 553.528 500.175 554.194 500.139 557.895 568.436ZM549.939 501.705 553.5 493.5 557.927 501.272Z" fill="#4472C4"/><path d="M548.229 449.472 544.528 381.175 545.194 381.139 548.895 449.436ZM540.939 382.705 544.5 374.5 548.927 382.272Z" fill="#4472C4"/><rect x="417" y="313" width="235" height="62" fill="#F8CBAD"/><text font-family="DengXian,DengXian_MSFontService,sans-serif" font-weight="400" font-size="24" transform="translate(445.15 351)">Orientation index</text></g></svg>