<svg width="1280" height="720" xmlns="http://www.w3.org/2000/svg" xmlns:xlink="http://www.w3.org/1999/xlink" overflow="hidden"><defs><clipPath id="clip0"><rect x="0" y="0" width="1280" height="720"/></clipPath><clipPath id="clip1"><rect x="640" y="65" width="81" height="202"/></clipPath><clipPath id="clip2"><rect x="720" y="65" width="58" height="202"/></clipPath><clipPath id="clip3"><rect x="778" y="65" width="60" height="202"/></clipPath><clipPath id="clip4"><rect x="640" y="103" width="81" height="203"/></clipPath><clipPath id="clip5"><rect x="720" y="103" width="58" height="203"/></clipPath><clipPath id="clip6"><rect x="778" y="103" width="60" height="203"/></clipPath><clipPath id="clip7"><rect x="920" y="103" width="196" height="203"/></clipPath><clipPath id="clip8"><rect x="640" y="142" width="81" height="202"/></clipPath><clipPath id="clip9"><rect x="720" y="142" width="58" height="202"/></clipPath><clipPath id="clip10"><rect x="778" y="142" width="60" height="202"/></clipPath><clipPath id="clip11"><rect x="838" y="142" width="82" height="202"/></clipPath><clipPath id="clip12"><rect x="640" y="180" width="81" height="203"/></clipPath><clipPath id="clip13"><rect x="720" y="180" width="58" height="203"/></clipPath><clipPath id="clip14"><rect x="778" y="180" width="60" height="203"/></clipPath><clipPath id="clip15"><rect x="640" y="218" width="81" height="203"/></clipPath><clipPath id="clip16"><rect x="720" y="218" width="58" height="203"/></clipPath><clipPath id="clip17"><rect x="778" y="218" width="60" height="203"/></clipPath><clipPath id="clip18"><rect x="640" y="257" width="81" height="202"/></clipPath><clipPath id="clip19"><rect x="720" y="257" width="58" height="202"/></clipPath><clipPath id="clip20"><rect x="778" y="257" width="60" height="202"/></clipPath><clipPath id="clip21"><rect x="640" y="295" width="81" height="203"/></clipPath><clipPath id="clip22"><rect x="720" y="295" width="58" height="203"/></clipPath><clipPath id="clip23"><rect x="778" y="295" width="60" height="203"/></clipPath><clipPath id="clip24"><rect x="640" y="334" width="81" height="202"/></clipPath><clipPath id="clip25"><rect x="720" y="334" width="58" height="202"/></clipPath><clipPath id="clip26"><rect x="778" y="334" width="60" height="202"/></clipPath><clipPath id="clip27"><rect x="640" y="372" width="81" height="203"/></clipPath><clipPath id="clip28"><rect x="720" y="372" width="58" height="203"/></clipPath><clipPath id="clip29"><rect x="778" y="372" width="60" height="203"/></clipPath><clipPath id="clip30"><rect x="838" y="372" width="82" height="203"/></clipPath></defs><g clip-path="url(#clip0)"><rect x="0" y="0" width="1280" height="720" fill="#FFFFFF"/><path d="M210.5 104C210.5 84.9462 230.423 69.5001 255 69.5001 279.577 69.5001 299.5 84.9462 299.5 104 299.5 123.054 279.577 138.5 255 138.5 230.423 138.5 210.5 123.054 210.5 104Z" stroke="#AE5A21" stroke-width="1.33333" stroke-miterlimit="8" fill="#ED7D31" fill-rule="evenodd"/><rect x="214.5" y="415.5" width="268" height="185" stroke="#2F528F" stroke-width="1.33333" stroke-miterlimit="8" stroke-dasharray="10.6667 4" fill="#E2F0D9"/><text fill="#0070C0" font-family="DengXian,DengXian_MSFontService,sans-serif" font-weight="700" font-size="37" transform="translate(97.6 38)">Model abstraction </text><rect x="114.5" y="173.5" width="290" height="203" stroke="#2F528F" stroke-width="1.33333" stroke-miterlimit="8" stroke-dasharray="10.6667 4" fill="#FFF2CC"/><path d="M198.333 205.5 241.667 205.5C247.65 205.5 252.5 211.992 252.5 220 252.5 228.008 247.65 234.5 241.667 234.5L198.333 234.5C192.35 234.5 187.5 228.008 187.5 220 187.5 211.992 192.35 205.5 198.333 205.5Z" fill="#DEEBF7" fill-rule="evenodd"/><path d="M241.667 234.5C235.684 234.5 230.833 228.008 230.833 220 230.833 211.992 235.684 205.5 241.667 205.5" stroke="#5B9BD5" stroke-linejoin="round" stroke-miterlimit="10" fill="none" fill-rule="evenodd"/><path d="M198.333 205.5 241.667 205.5C247.65 205.5 252.5 211.992 252.5 220 252.5 228.008 247.65 234.5 241.667 234.5L198.333 234.5C192.35 234.5 187.5 228.008 187.5 220 187.5 211.992 192.35 205.5 198.333 205.5Z" stroke="#5B9BD5" stroke-linejoin="round" stroke-miterlimit="10" fill="none" fill-rule="evenodd"/><path d="M279.906 234.608 310.236 203.687C314.424 199.418 322.468 200.517 328.202 206.143 333.937 211.768 335.192 219.789 331.004 224.058L300.674 254.979C296.486 259.249 288.442 258.149 282.707 252.524 276.972 246.899 275.718 238.878 279.906 234.608Z" fill="#DEEBF7" fill-rule="evenodd"/><path d="M331.004 224.058C326.816 228.328 318.772 227.228 313.037 221.603 307.303 215.978 306.048 207.957 310.236 203.687" stroke="#5B9BD5" stroke-linejoin="round" stroke-miterlimit="10" fill="none" fill-rule="evenodd"/><path d="M279.906 234.608 310.236 203.687C314.424 199.418 322.468 200.517 328.202 206.143 333.937 211.768 335.192 219.789 331.004 224.058L300.674 254.979C296.486 259.249 288.442 258.149 282.707 252.524 276.972 246.899 275.718 238.878 279.906 234.608Z" stroke="#5B9BD5" stroke-linejoin="round" stroke-miterlimit="10" fill="none" fill-rule="evenodd"/><path d="M300.5 338.667 300.5 295.333C300.5 289.35 306.992 284.5 315 284.5 323.008 284.5 329.5 289.35 329.5 295.333L329.5 338.667C329.5 344.65 323.008 349.5 315 349.5 306.992 349.5 300.5 344.65 300.5 338.667Z" fill="#DEEBF7" fill-rule="evenodd"/><path d="M329.5 295.333C329.5 301.316 323.008 306.167 315 306.167 306.992 306.167 300.5 301.316 300.5 295.333" stroke="#5B9BD5" stroke-linejoin="round" stroke-miterlimit="10" fill="none" fill-rule="evenodd"/><path d="M300.5 338.667 300.5 295.333C300.5 289.35 306.992 284.5 315 284.5 323.008 284.5 329.5 289.35 329.5 295.333L329.5 338.667C329.5 344.65 323.008 349.5 315 349.5 306.992 349.5 300.5 344.65 300.5 338.667Z" stroke="#5B9BD5" stroke-linejoin="round" stroke-miterlimit="10" fill="none" fill-rule="evenodd"/><path d="M0 0 42.9495 0.00367454" stroke="#4472C4" stroke-width="0.666667" stroke-miterlimit="8" fill="none" fill-rule="evenodd" transform="matrix(1 0 0 -1 252.5 219.504)"/><path d="M0 0 1.17113 44.1175" stroke="#4472C4" stroke-width="0.666667" stroke-miterlimit="8" fill="none" fill-rule="evenodd" transform="matrix(-1 0 0 1 316.671 240.5)"/><path d="M294.333 508.5 337.667 508.5C343.65 508.5 348.5 514.992 348.5 523 348.5 531.008 343.65 537.5 337.667 537.5L294.333 537.5C288.35 537.5 283.5 531.008 283.5 523 283.5 514.992 288.35 508.5 294.333 508.5Z" fill="#DEEBF7" fill-rule="evenodd"/><path d="M337.667 537.5C331.684 537.5 326.833 531.008 326.833 523 326.833 514.992 331.684 508.5 337.667 508.5" stroke="#5B9BD5" stroke-linejoin="round" stroke-miterlimit="10" fill="none" fill-rule="evenodd"/><path d="M294.333 508.5 337.667 508.5C343.65 508.5 348.5 514.992 348.5 523 348.5 531.008 343.65 537.5 337.667 537.5L294.333 537.5C288.35 537.5 283.5 531.008 283.5 523 283.5 514.992 288.35 508.5 294.333 508.5Z" stroke="#5B9BD5" stroke-linejoin="round" stroke-miterlimit="10" fill="none" fill-rule="evenodd"/><path d="M315.5 349.5 315.984 508.53" stroke="#4472C4" stroke-width="0.666667" stroke-miterlimit="8" fill="none" fill-rule="evenodd"/><path d="M409.5 544.667 409.5 501.333C409.5 495.35 415.992 490.5 424 490.5 432.008 490.5 438.5 495.35 438.5 501.333L438.5 544.667C438.5 550.65 432.008 555.5 424 555.5 415.992 555.5 409.5 550.65 409.5 544.667Z" fill="#DEEBF7" fill-rule="evenodd"/><path d="M438.5 501.333C438.5 507.316 432.008 512.167 424 512.167 415.992 512.167 409.5 507.316 409.5 501.333" stroke="#5B9BD5" stroke-linejoin="round" stroke-miterlimit="10" fill="none" fill-rule="evenodd"/><path d="M409.5 544.667 409.5 501.333C409.5 495.35 415.992 490.5 424 490.5 432.008 490.5 438.5 495.35 438.5 501.333L438.5 544.667C438.5 550.65 432.008 555.5 424 555.5 415.992 555.5 409.5 550.65 409.5 544.667Z" stroke="#5B9BD5" stroke-linejoin="round" stroke-miterlimit="10" fill="none" fill-rule="evenodd"/><path d="M0 0 61.5766 0.000104987" stroke="#4472C4" stroke-width="0.666667" stroke-miterlimit="8" fill="none" fill-rule="evenodd" transform="matrix(-1 0 0 1 410.077 522.5)"/><text font-family="DengXian,DengXian_MSFontService,sans-serif" font-weight="400" font-size="21" transform="translate(224.873 588)">elbow joint<tspan font-size="21" x="-100.364" y="-219">shoulder joint</tspan></text><path d="M219.985 205.258 219.5 133.5" stroke="#4472C4" stroke-width="0.666667" stroke-miterlimit="8" fill="none" fill-rule="evenodd"/><rect x="168.5" y="119.5" width="103" height="14" stroke="#DEEBF7" stroke-width="1.33333" stroke-miterlimit="8" fill="#DEEBF7"/><text font-family="DengXian,DengXian_MSFontService,sans-serif" font-weight="400" font-size="21" transform="translate(192.873 109)">torso</text><path d="M0.235131-0.236272 13.1038 12.5703 12.6335 13.0428-0.235131 0.236272ZM14.7452 9.03077 17.5941 17.5092 9.10202 14.7013Z" fill="#C00000" transform="matrix(-1 0 0 1 366.094 128.5)"/><path d="M1.38538e-06-0.333333 18.594-0.333256 18.594 0.333411-1.38538e-06 0.333333ZM17.2607-3.99993 25.2607 0.000104987 17.2607 4.00007Z" fill="#0070C0" transform="matrix(-1 0 0 1 365.761 128.5)"/><path d="M0.333333-1.52156e-06 0.333408 16.3332-0.333259 16.3332-0.333333 1.52156e-06ZM4.00007 14.9999 0.000104987 22.9999-3.99993 14.9999Z" fill="#70AD47" transform="matrix(1 0 0 -1 365.5 128.5)"/><path d="M640.364 146.925 720 146.925 720 185.325 640.364 185.325Z" fill="#4472C4" fill-rule="evenodd"/><path d="M720 146.925 778 146.925 778 185.325 720 185.325Z" fill="#4472C4" fill-rule="evenodd"/><path d="M778 146.925 838 146.925 838 185.325 778 185.325Z" fill="#4472C4" fill-rule="evenodd"/><path d="M838 146.925 920 146.925 920 185.325 838 185.325Z" fill="#4472C4" fill-rule="evenodd"/><path d="M920 146.925 1116 146.925 1116 185.325 920 185.325Z" fill="#4472C4" fill-rule="evenodd"/><path d="M640.364 185.325 720 185.325 720 223.725 640.364 223.725Z" fill="#E7E7E7" fill-rule="evenodd"/><path d="M720 185.325 778 185.325 778 223.725 720 223.725Z" fill="#E7E7E7" fill-rule="evenodd"/><path d="M778 185.325 838 185.325 838 223.725 778 223.725Z" fill="#E7E7E7" fill-rule="evenodd"/><path d="M838 185.325 920 185.325 920 223.725 838 223.725Z" fill="#E7E7E7" fill-rule="evenodd"/><path d="M920 185.325 1116 185.325 1116 223.725 920 223.725Z" fill="#E7E7E7" fill-rule="evenodd"/><path d="M640.364 223.725 720 223.725 720 262.125 640.364 262.125Z" fill="#FFFFFF" fill-rule="evenodd"/><path d="M720 223.725 778 223.725 778 262.125 720 262.125Z" fill="#FFFFFF" fill-rule="evenodd"/><path d="M778 223.725 838 223.725 838 262.125 778 262.125Z" fill="#FFFFFF" fill-rule="evenodd"/><path d="M838 223.725 920 223.725 920 262.125 838 262.125Z" fill="#FFFFFF" fill-rule="evenodd"/><path d="M920 223.725 1116 223.725 1116 262.125 920 262.125Z" fill="#FFFFFF" fill-rule="evenodd"/><path d="M640.364 262.125 720 262.125 720 300.525 640.364 300.525Z" fill="#E7E7E7" fill-rule="evenodd"/><path d="M720 262.125 778 262.125 778 300.525 720 300.525Z" fill="#E7E7E7" fill-rule="evenodd"/><path d="M778 262.125 838 262.125 838 300.525 778 300.525Z" fill="#E7E7E7" fill-rule="evenodd"/><path d="M838 262.125 920 262.125 920 300.525 838 300.525Z" fill="#E7E7E7" fill-rule="evenodd"/><path d="M920 262.125 1116 262.125 1116 300.525 920 300.525Z" fill="#E7E7E7" fill-rule="evenodd"/><path d="M640.364 300.525 720 300.525 720 338.925 640.364 338.925Z" fill="#FFFFFF" fill-rule="evenodd"/><path d="M720 300.525 778 300.525 778 338.925 720 338.925Z" fill="#FFFFFF" fill-rule="evenodd"/><path d="M778 300.525 838 300.525 838 338.925 778 338.925Z" fill="#FFFFFF" fill-rule="evenodd"/><path d="M838 300.525 920 300.525 920 338.925 838 338.925Z" fill="#FFFFFF" fill-rule="evenodd"/><path d="M920 300.525 1116 300.525 1116 338.925 920 338.925Z" fill="#FFFFFF" fill-rule="evenodd"/><path d="M640.364 338.925 720 338.925 720 377.325 640.364 377.325Z" fill="#E7E7E7" fill-rule="evenodd"/><path d="M720 338.925 778 338.925 778 377.325 720 377.325Z" fill="#E7E7E7" fill-rule="evenodd"/><path d="M778 338.925 838 338.925 838 377.325 778 377.325Z" fill="#E7E7E7" fill-rule="evenodd"/><path d="M838 338.925 920 338.925 920 377.325 838 377.325Z" fill="#E7E7E7" fill-rule="evenodd"/><path d="M920 338.925 1116 338.925 1116 377.325 920 377.325Z" fill="#E7E7E7" fill-rule="evenodd"/><path d="M640.364 377.325 720 377.325 720 415.725 640.364 415.725Z" fill="#FFFFFF" fill-rule="evenodd"/><path d="M720 377.325 778 377.325 778 415.725 720 415.725Z" fill="#FFFFFF" fill-rule="evenodd"/><path d="M778 377.325 838 377.325 838 415.725 778 415.725Z" fill="#FFFFFF" fill-rule="evenodd"/><path d="M838 377.325 920 377.325 920 415.725 838 415.725Z" fill="#FFFFFF" fill-rule="evenodd"/><path d="M920 377.325 1116 377.325 1116 415.725 920 415.725Z" fill="#FFFFFF" fill-rule="evenodd"/><path d="M640.364 415.725 720 415.725 720 454.125 640.364 454.125Z" fill="#E7E7E7" fill-rule="evenodd"/><path d="M720 415.725 778 415.725 778 454.125 720 454.125Z" fill="#E7E7E7" fill-rule="evenodd"/><path d="M778 415.725 838 415.725 838 454.125 778 454.125Z" fill="#E7E7E7" fill-rule="evenodd"/><path d="M838 415.725 920 415.725 920 454.125 838 454.125Z" fill="#E7E7E7" fill-rule="evenodd"/><path d="M920 415.725 1116 415.725 1116 454.125 920 454.125Z" fill="#E7E7E7" fill-rule="evenodd"/><path d="M640.364 454.125 720 454.125 720 492.525 640.364 492.525Z" fill="#FFFFFF" fill-rule="evenodd"/><path d="M720 454.125 778 454.125 778 492.525 720 492.525Z" fill="#FFFFFF" fill-rule="evenodd"/><path d="M778 454.125 838 454.125 838 492.525 778 492.525Z" fill="#FFFFFF" fill-rule="evenodd"/><path d="M838 454.125 920 454.125 920 492.525 838 492.525Z" fill="#FFFFFF" fill-rule="evenodd"/><path d="M920 454.125 1116 454.125 1116 492.525 920 492.525Z" fill="#FFFFFF" fill-rule="evenodd"/><path d="M640.364 185.325 1116 185.325" stroke="#000000" stroke-width="2.66667" stroke-linejoin="round" stroke-miterlimit="10" fill="none" fill-rule="evenodd"/><path d="M640.364 146.925 1116 146.925" stroke="#000000" stroke-width="2.66667" stroke-linejoin="round" stroke-miterlimit="10" fill="none" fill-rule="evenodd"/><path d="M640.364 492.525 1116 492.525" stroke="#000000" stroke-width="2.66667" stroke-linejoin="round" stroke-miterlimit="10" fill="none" fill-rule="evenodd"/><g clip-path="url(#clip1)"><text fill="#FFFFFF" font-family="DengXian,DengXian_MSFontService,sans-serif" font-weight="700" font-size="24" transform="translate(649.964 174)">Joint</text></g><g clip-path="url(#clip2)"><text fill="#FFFFFF" font-family="DengXian,DengXian_MSFontService,sans-serif" font-weight="700" font-size="24" transform="translate(729.6 174)">a</text></g><g clip-path="url(#clip3)"><text fill="#FFFFFF" font-family="DengXian,DengXian_MSFontService,sans-serif" font-weight="700" font-size="24" transform="translate(787.6 174)">d</text></g><text fill="#FFFFFF" font-family="Cambria Math,Cambria Math_MSFontService,sans-serif" font-weight="400" font-size="24" transform="translate(847.6 174)">ğœ¶<tspan font-size="24" x="82" y="0">ğœ½</tspan></text><g clip-path="url(#clip4)"><text font-family="DengXian,DengXian_MSFontService,sans-serif" font-weight="400" font-size="24" transform="translate(649.964 212)">h</text></g><g clip-path="url(#clip5)"><text font-family="DengXian,DengXian_MSFontService,sans-serif" font-weight="400" font-size="24" transform="translate(729.6 212)">0</text></g><g clip-path="url(#clip6)"><text font-family="DengXian,DengXian_MSFontService,sans-serif" font-weight="400" font-size="24" transform="translate(787.6 212)">0</text></g><text font-family="Cambria Math,Cambria Math_MSFontService,sans-serif" font-weight="400" font-size="24" transform="translate(847.6 212)">ğœ‹<tspan font-size="24" x="14.6801" y="0">/</tspan><tspan font-size="24" x="26.5134" y="0">2</tspan></text><g clip-path="url(#clip7)"><text font-family="DengXian,DengXian_MSFontService,sans-serif" font-weight="400" font-size="24" transform="translate(929.6 212)">0</text></g><g clip-path="url(#clip8)"><text font-family="DengXian,DengXian_MSFontService,sans-serif" font-weight="400" font-size="24" transform="translate(649.964 251)">0</text></g><g clip-path="url(#clip9)"><text font-family="DengXian,DengXian_MSFontService,sans-serif" font-weight="400" font-size="24" transform="translate(729.6 251)">0</text></g><g clip-path="url(#clip10)"><text font-family="DengXian,DengXian_MSFontService,sans-serif" font-weight="400" font-size="24" transform="translate(787.6 251)">0</text></g><g clip-path="url(#clip11)"><text font-family="DengXian,DengXian_MSFontService,sans-serif" font-weight="400" font-size="24" transform="translate(847.6 251)">0</text></g><text font-family="Cambria Math,Cambria Math_MSFontService,sans-serif" font-weight="400" font-size="24" transform="translate(929.6 251)">ğœ‹<tspan font-size="24" x="14.6801" y="0">/</tspan><tspan font-size="24" x="26.5134" y="0">2</tspan></text><g clip-path="url(#clip12)"><text font-family="DengXian,DengXian_MSFontService,sans-serif" font-weight="400" font-size="24" transform="translate(649.964 289)">1</text></g><g clip-path="url(#clip13)"><text font-family="DengXian,DengXian_MSFontService,sans-serif" font-weight="400" font-size="24" transform="translate(729.6 289)">0</text></g><g clip-path="url(#clip14)"><text font-family="DengXian,DengXian_MSFontService,sans-serif" font-weight="400" font-size="24" transform="translate(787.6 289)">0</text></g><text font-family="Cambria Math,Cambria Math_MSFontService,sans-serif" font-weight="400" font-size="24" transform="translate(847.6 289)">ğœ‹<tspan font-size="24" x="14.6801" y="0">/</tspan><tspan font-size="24" x="26.5134" y="0">2</tspan><tspan font-size="24" x="82" y="0">ğœƒ</tspan><tspan font-size="18" x="94.1" y="5">1</tspan></text><g clip-path="url(#clip15)"><text font-family="DengXian,DengXian_MSFontService,sans-serif" font-weight="400" font-size="24" transform="translate(649.964 327)">2</text></g><g clip-path="url(#clip16)"><text font-family="DengXian,DengXian_MSFontService,sans-serif" font-weight="400" font-size="24" transform="translate(729.6 327)">0</text></g><g clip-path="url(#clip17)"><text font-family="DengXian,DengXian_MSFontService,sans-serif" font-weight="400" font-size="24" transform="translate(787.6 327)">0</text></g><text font-family="Cambria Math,Cambria Math_MSFontService,sans-serif" font-weight="400" font-size="24" transform="translate(847.6 327)">ğœ‹<tspan font-size="24" x="14.6801" y="0">/</tspan><tspan font-size="24" x="26.5134" y="0">2</tspan><tspan font-size="24" x="82" y="0">ğœƒ</tspan><tspan font-size="18" x="94.6534" y="5">2</tspan><tspan font-size="24" x="111.147" y="0">âˆ’</tspan><tspan font-size="24" x="134.48" y="0">ğœ‹</tspan><tspan font-size="24" x="149.16" y="0">/</tspan><tspan font-size="24" x="160.993" y="0">2</tspan></text><g clip-path="url(#clip18)"><text font-family="DengXian,DengXian_MSFontService,sans-serif" font-weight="400" font-size="24" transform="translate(649.964 366)">3</text></g><g clip-path="url(#clip19)"><text font-family="DengXian,DengXian_MSFontService,sans-serif" font-weight="400" font-size="24" transform="translate(729.6 366)">0</text></g><g clip-path="url(#clip20)"><text font-family="DengXian,DengXian_MSFontService,sans-serif" font-weight="400" font-size="24" transform="translate(787.6 366)">lu</text></g><text font-family="Cambria Math,Cambria Math_MSFontService,sans-serif" font-weight="400" font-size="24" transform="translate(847.6 366)">ğœ‹<tspan font-size="24" x="14.6801" y="0">/</tspan><tspan font-size="24" x="26.5134" y="0">2</tspan><tspan font-size="24" x="82" y="0">ğœƒ</tspan><tspan font-size="18" x="94.6534" y="5">3</tspan><tspan font-size="24" x="111.147" y="0">âˆ’</tspan><tspan font-size="24" x="134.48" y="0">ğœ‹</tspan><tspan font-size="24" x="149.16" y="0">/</tspan><tspan font-size="24" x="160.993" y="0">2</tspan></text><g clip-path="url(#clip21)"><text font-family="DengXian,DengXian_MSFontService,sans-serif" font-weight="400" font-size="24" transform="translate(649.964 404)">4</text></g><g clip-path="url(#clip22)"><text font-family="DengXian,DengXian_MSFontService,sans-serif" font-weight="400" font-size="24" transform="translate(729.6 404)">0</text></g><g clip-path="url(#clip23)"><text font-family="DengXian,DengXian_MSFontService,sans-serif" font-weight="400" font-size="24" transform="translate(787.6 404)">0</text></g><text font-family="Cambria Math,Cambria Math_MSFontService,sans-serif" font-weight="400" font-size="24" transform="translate(859.007 404)">ğœ‹<tspan font-size="24" x="14.68" y="0">/</tspan><tspan font-size="24" x="26.5134" y="0">2</tspan><tspan font-size="24" x="70.5933" y="0">ğœƒ</tspan><tspan font-size="18" x="82.6867" y="5">4</tspan><tspan font-size="24" x="99.18" y="0">+</tspan><tspan font-size="24" x="122.513" y="0">ğœ‹</tspan></text><g clip-path="url(#clip24)"><text font-family="DengXian,DengXian_MSFontService,sans-serif" font-weight="400" font-size="24" transform="translate(649.964 443)">5</text></g><g clip-path="url(#clip25)"><text font-family="DengXian,DengXian_MSFontService,sans-serif" font-weight="400" font-size="24" transform="translate(729.6 443)">0</text></g><g clip-path="url(#clip26)"><text font-family="DengXian,DengXian_MSFontService,sans-serif" font-weight="400" font-size="24" transform="translate(787.6 443)">lf</text></g><text font-family="Cambria Math,Cambria Math_MSFontService,sans-serif" font-weight="400" font-size="24" transform="translate(850.007 443)">âˆ’ğœ‹<tspan font-size="24" x="32.68" y="0">/</tspan><tspan font-size="24" x="44.5134" y="0">2</tspan><tspan font-size="24" x="79.5933" y="0">ğœƒ</tspan><tspan font-size="18" x="92.2467" y="4">5</tspan><tspan font-size="24" x="108.74" y="0">+</tspan><tspan font-size="24" x="132.073" y="0">ğœ‹</tspan><tspan font-size="24" x="146.753" y="0">/</tspan><tspan font-family="DengXian,DengXian_MSFontService,sans-serif" font-size="24" x="158.587" y="0">2</tspan></text><g clip-path="url(#clip27)"><text font-family="DengXian,DengXian_MSFontService,sans-serif" font-weight="400" font-size="24" transform="translate(649.964 481)">6</text></g><g clip-path="url(#clip28)"><text font-family="DengXian,DengXian_MSFontService,sans-serif" font-weight="400" font-size="24" transform="translate(729.6 481)">0</text></g><g clip-path="url(#clip29)"><text font-family="DengXian,DengXian_MSFontService,sans-serif" font-weight="400" font-size="24" transform="translate(787.6 481)">0</text></g><g clip-path="url(#clip30)"><text font-family="DengXian,DengXian_MSFontService,sans-serif" font-weight="400" font-size="24" transform="translate(847.6 481)">0</text></g><text font-family="Cambria Math,Cambria Math_MSFontService,sans-serif" font-weight="400" font-size="24" transform="translate(929.6 481)">âˆ’ğœ‹<tspan font-size="24" x="32.6801" y="0">/</tspan><tspan font-size="24" x="44.5134" y="0">2</tspan><tspan font-size="24" x="-726.547" y="-256">ğœƒ</tspan><tspan font-size="18" x="-714.447" y="-251">1</tspan><tspan font-size="24" x="-638.573" y="-243">ğœƒ</tspan><tspan font-size="18" x="-625.92" y="-238">2</tspan><tspan font-size="24" x="-625.907" y="-155">ğœƒ</tspan><tspan font-size="18" x="-613.253" y="-150">3</tspan><tspan font-size="24" x="-627.627" y="47">ğœƒ</tspan><tspan font-size="18" x="-615.533" y="52">4</tspan><tspan font-size="24" x="-515.907" y="53">ğœƒ</tspan><tspan font-size="18" x="-503.253" y="58">5</tspan></text><path d="M0.178522-0.281498 12.276 7.39058 11.919 7.95357-0.178522 0.281498ZM13.1138 3.58002 17.7275 11.2425 8.82924 10.336Z" fill="#C00000" transform="matrix(-1 0 0 1 252.228 109.5)"/><path d="M251.5 109.167 269.439 109.167 269.439 109.833 251.5 109.833ZM268.106 105.5 276.106 109.5 268.106 113.5Z" fill="#70AD47"/><path d="M0.333333-1.52156e-06 0.333408 16.3332-0.333259 16.3332-0.333333 1.52156e-06ZM4.00007 14.9999 0.000104987 22.9999-3.99993 14.9999Z" fill="#0070C0" transform="matrix(1 0 0 -1 251.5 108.5)"/><text font-family="DengXian,DengXian_MSFontService,sans-serif" font-weight="400" font-size="16" transform="translate(247.809 82)">z<tspan font-size="16" x="-22.5" y="43">x</tspan><tspan font-size="16" x="31.5" y="32">y</tspan></text><path d="M0.333333-1.1113e-06 0.333416 24.8241-0.333251 24.8241-0.333333 1.1113e-06ZM4.00008 23.4908 0.000104987 31.4908-3.99992 23.4908Z" fill="#C00000" transform="matrix(1 0 0 -1 159.5 224.991)"/><path d="M1.38538e-06-0.333333 18.594-0.333256 18.594 0.333411-1.38538e-06 0.333333ZM17.2607-3.99993 25.2607 0.000104987 17.2607 4.00007Z" fill="#0070C0" transform="matrix(-1 0 0 1 159.761 224.5)"/><path d="M0.268212-0.197923 15.0534 19.8379 14.5169 20.2338-0.268212 0.197923ZM17.212 16.5879 18.7436 25.4001 10.7749 21.3381Z" fill="#70AD47" transform="matrix(1 0 0 -1 159.5 224.9)"/><text font-family="DengXian,DengXian_MSFontService,sans-serif" font-weight="400" font-size="16" transform="translate(134 240)">z<tspan font-size="16" x="21.1667" y="-49">x</tspan><tspan font-size="16" x="48.1667" y="-31">y</tspan></text><path d="M0.333333-1.1113e-06 0.333416 24.8241-0.333251 24.8241-0.333333 1.1113e-06ZM4.00008 23.4908 0.000104987 31.4908-3.99992 23.4908Z" fill="#C00000" transform="matrix(1 0 0 -1 366.5 217.991)"/><path d="M0.274952-0.188448 11.9334 16.8216 11.3835 17.1985-0.274952 0.188448ZM14.2041 13.6489 15.4274 22.5091 7.60523 18.1716Z" fill="#0070C0" transform="matrix(-1 0 0 1 366.927 217.5)"/><path d="M1.21092e-06-0.333333 22.2334-0.333253 22.2334 0.333414-1.21092e-06 0.333333ZM20.9001-3.99992 28.9001 0.000104987 20.9 4.00008Z" fill="#70AD47" transform="matrix(-1 0 0 1 366.4 217.5)"/><text font-family="DengXian,DengXian_MSFontService,sans-serif" font-weight="400" font-size="16" transform="translate(344.333 253)">z<tspan font-size="16" x="17.8334" y="-69">x</tspan><tspan font-size="16" x="-10.3666" y="-44">y</tspan></text><path d="M362.5 301.167 378.473 301.167 378.473 301.833 362.5 301.833ZM377.139 297.5 385.139 301.5 377.139 305.5Z" fill="#C00000"/><path d="M362.833 301.5 362.833 318.476 362.167 318.476 362.167 301.5ZM366.5 317.142 362.5 325.142 358.5 317.142Z" fill="#0070C0"/><path d="M0.179504-0.280873 15.529 9.52885 15.17 10.0906-0.179504 0.280873ZM16.38 5.72123 20.9669 13.3998 12.0719 12.4622Z" fill="#70AD47" transform="matrix(-1 0 0 1 361.467 301.5)"/><text font-family="DengXian,DengXian_MSFontService,sans-serif" font-weight="400" font-size="16" transform="translate(358.933 337)">z<tspan font-size="16" x="31.0334" y="-30">x</tspan><tspan font-size="16" x="-26.7" y="-22">y</tspan></text><path d="M0.233615-0.237772 13.5116 12.808 13.0443 13.2836-0.233615 0.237772ZM15.1302 9.2581 18.0334 17.7181 9.52349 14.9646Z" fill="#C00000" transform="matrix(1 0 0 -1 260.5 516.218)"/><path d="M260.142 516.833 243.167 516.833 243.167 516.167 260.142 516.167ZM244.5 520.5 236.5 516.5 244.5 512.5Z" fill="#0070C0"/><path d="M260.833 516.5 260.833 535.176 260.167 535.176 260.167 516.5ZM264.5 533.842 260.5 541.842 256.5 533.842Z" fill="#70AD47"/><text font-family="DengXian,DengXian_MSFontService,sans-serif" font-weight="400" font-size="16" transform="matrix(-1 1.22465e-16 -1.22465e-16 -1 233.833 512)">z</text><text font-family="DengXian,DengXian_MSFontService,sans-serif" font-weight="400" font-size="16" transform="translate(279.134 495)">x<tspan font-size="16" x="-19.3" y="55">y</tspan></text><path d="M0.237807-0.233579 13.9829 13.7603 13.5073 14.2275-0.237807 0.233579ZM15.6645 10.2397 18.4167 18.75 9.95712 15.8456Z" fill="#C00000" transform="matrix(-1 0 0 1 423.917 561.5)"/><text font-family="DengXian,DengXian_MSFontService,sans-serif" font-weight="400" font-size="16" transform="translate(396.333 588)">x</text><path d="M423.833 561.5 423.833 582.167 423.167 582.167 423.167 561.5ZM427.5 580.833 423.5 588.833 419.5 580.833Z" fill="#0070C0"/><text font-family="DengXian,DengXian_MSFontService,sans-serif" font-weight="400" font-size="16" transform="matrix(-1 1.22465e-16 -1.22465e-16 -1 429.667 590)">z</text><text font-family="DengXian,DengXian_MSFontService,sans-serif" font-weight="400" font-size="16" transform="translate(392.917 563)">y</text><path d="M1.84186e-06-0.333333 12.3334-0.333265 12.3334 0.333401-1.84186e-06 0.333333ZM11.0001-3.99994 19.0001 0.000104987 11.0001 4.00006Z" fill="#70AD47" transform="matrix(-1 0 0 1 423.5 561.5)"/><path d="M542.5 544.667 542.5 501.333C542.5 495.35 548.992 490.5 557 490.5 565.008 490.5 571.5 495.35 571.5 501.333L571.5 544.667C571.5 550.65 565.008 555.5 557 555.5 548.992 555.5 542.5 550.65 542.5 544.667Z" fill="#DEEBF7" fill-rule="evenodd"/><path d="M571.5 501.333C571.5 507.316 565.008 512.167 557 512.167 548.992 512.167 542.5 507.316 542.5 501.333" stroke="#5B9BD5" stroke-linejoin="round" stroke-miterlimit="10" fill="none" fill-rule="evenodd"/><path d="M542.5 544.667 542.5 501.333C542.5 495.35 548.992 490.5 557 490.5 565.008 490.5 571.5 495.35 571.5 501.333L571.5 544.667C571.5 550.65 565.008 555.5 557 555.5 548.992 555.5 542.5 550.65 542.5 544.667Z" stroke="#5B9BD5" stroke-linejoin="round" stroke-miterlimit="10" fill="none" fill-rule="evenodd"/><path d="M0 0 103.909 0.000104987" stroke="#4472C4" stroke-width="0.666667" stroke-miterlimit="8" fill="none" fill-rule="evenodd" transform="matrix(-1 0 0 1 542.409 522.5)"/><text font-family="DengXian,DengXian_MSFontService,sans-serif" font-weight="400" font-size="24" transform="translate(327.6 433)">lu<tspan font-size="24" x="161" y="76">lf</tspan></text><path d="M1.26489e-06-0.333333 21.0002-0.333254 21.0002 0.333413-1.26489e-06 0.333333ZM19.6669-3.99993 27.6669 0.000104987 19.6669 4.00007Z" fill="#C00000" transform="matrix(-1 0 0 1 560.167 608.5)"/><text font-family="DengXian,DengXian_MSFontService,sans-serif" font-weight="400" font-size="16" transform="translate(520.333 610)">x</text><path d="M0.239663-0.231674 13.9728 13.9751 13.4935 14.4384-0.239663 0.231674ZM15.6824 10.468 18.3666 19 9.93049 16.0282Z" fill="#0070C0" transform="matrix(1 0 0 -1 559.5 607.5)"/><text font-family="DengXian,DengXian_MSFontService,sans-serif" font-weight="400" font-size="16" transform="matrix(-1 1.22465e-16 -1.22465e-16 -1 583.667 577)">z</text><text font-family="DengXian,DengXian_MSFontService,sans-serif" font-weight="400" font-size="16" transform="translate(553.834 570)">y</text><path d="M0.333333-1.02177e-06 0.333418 27.5833-0.333249 27.5833-0.333333 1.02177e-06ZM4.00008 26.25 0.000104987 34.25-3.99992 26.25Z" fill="#70AD47" transform="matrix(1 0 0 -1 560.5 608.75)"/><text font-family="DengXian,DengXian_MSFontService,sans-serif" font-weight="400" font-size="21" transform="translate(517.673 471)">wrist joint<tspan font-size="24" x="-396.073" y="206">Watch screen towards the back of human</tspan></text><path d="M0.333333-1.56931e-06 0.333407 15.6334-0.33326 15.6334-0.333333 1.56931e-06ZM4.00007 14.3 0.000104987 22.3001-3.99993 14.3001Z" fill="#C00000" transform="matrix(-1 0 0 1 744.5 636.5)"/><text font-family="DengXian,DengXian_MSFontService,sans-serif" font-weight="400" font-size="16" transform="translate(741.6 675)">x</text><path d="M0.239663-0.231674 13.9728 13.9751 13.4935 14.4384-0.239663 0.231674ZM15.6824 10.468 18.3666 19 9.93049 16.0282Z" fill="#0070C0" transform="matrix(1 0 0 -1 743.5 636.5)"/><text font-family="DengXian,DengXian_MSFontService,sans-serif" font-weight="400" font-size="16" transform="matrix(-1 1.22465e-16 -1.22465e-16 -1 767.6 605)">z</text><text font-family="DengXian,DengXian_MSFontService,sans-serif" font-weight="400" font-size="16" transform="translate(707.167 638)">y</text><path d="M1.30743e-06-0.333333 20.1002-0.333254 20.1002 0.333412-1.30743e-06 0.333333ZM18.7668-3.99993 26.7668 0.000104987 18.7668 4.00007Z" fill="#70AD47" transform="matrix(-1 0 0 1 744.267 637.5)"/><rect x="714.5" y="528.5" width="37" height="31" stroke="#2F528F" stroke-width="1.33333" stroke-miterlimit="8" fill="#4472C4"/><rect x="751.5" y="536.5" width="42" height="13" stroke="#70AD47" stroke-width="1.33333" stroke-miterlimit="8" fill="#FFFFFF"/><rect x="672.5" y="537.5" width="41" height="13" stroke="#70AD47" stroke-width="1.33333" stroke-miterlimit="8" fill="#FFFFFF"/><text font-family="DengXian,DengXian_MSFontService,sans-serif" font-weight="400" font-size="24" transform="translate(754.767 592)">back<tspan font-size="24" x="-12" y="101">down</tspan><tspan font-size="24" x="-74.6667" y="19">left</tspan></text><path d="M1.34113e-06-0.333333 19.4274-0.333255 19.4274 0.333411-1.34113e-06 0.333333ZM18.0941-3.99993 26.0941 0.000104987 18.0941 4.00007Z" fill="#C00000" transform="matrix(-1 0 0 1 547.594 119.5)"/><path d="M0.333333-1.32104e-06 0.333412 19.8242-0.333255 19.8243-0.333333 1.32104e-06ZM4.00007 18.4909 0.000104987 26.4909-3.99993 18.4909Z" fill="#70AD47" transform="matrix(1 0 0 -1 547.5 119.991)"/><path d="M0.288803-0.166445 8.1599 13.4909 7.58229 13.8238-0.288803 0.166445ZM10.671 10.5048 11.2 19.4334 3.73968 14.4995Z" fill="#0070C0" transform="matrix(-1 0 0 1 546.7 119.5)"/><text font-family="DengXian,DengXian_MSFontService,sans-serif" font-weight="400" font-size="16" transform="translate(533 153)">z<tspan font-size="16" x="-31.8333" y="-31">x</tspan><tspan font-size="16" x="10.1667" y="-68">y</tspan></text></g></svg>